<svg width="26" height="26" viewBox="0 0 26 26" fill="none" xmlns="http://www.w3.org/2000/svg">
<path d="M0 26V22.75H4.46875L3.81875 22.1812C2.41042 20.9354 1.42187 19.5135 0.853125 17.9156C0.284375 16.3177 0 14.7062 0 13.0812C0 10.075 0.900521 7.40052 2.70156 5.05781C4.5026 2.7151 6.85208 1.16458 9.75 0.40625V3.81875C7.8 4.52292 6.22917 5.72135 5.0375 7.41406C3.84583 9.10677 3.25 10.9958 3.25 13.0812C3.25 14.3 3.48021 15.4849 3.94062 16.6359C4.40104 17.787 5.11875 18.85 6.09375 19.825L6.5 20.2312V16.25H9.75V26H0ZM16.25 25.5937V22.1812C18.2 21.4771 19.7708 20.2786 20.9625 18.5859C22.1542 16.8932 22.75 15.0042 22.75 12.9187C22.75 11.7 22.5198 10.5151 22.0594 9.36406C21.599 8.21302 20.8812 7.15 19.9062 6.175L19.5 5.76875V9.75H16.25V0H26V3.25H21.5312L22.1812 3.81875C23.5083 5.14583 24.4766 6.58802 25.0859 8.14531C25.6953 9.7026 26 11.2937 26 12.9187C26 15.925 25.0995 18.5995 23.2984 20.9422C21.4974 23.2849 19.1479 24.8354 16.25 25.5937Z" fill="#4E4E4E"/>
</svg>
