<svg width="17" height="30" viewBox="0 0 17 30" fill="none" xmlns="http://www.w3.org/2000/svg">
<path d="M6.31651 20.5263C6.31651 18.3947 6.50497 16.8618 6.88188 15.9276C7.25879 14.9934 8.0581 13.9737 9.27982 12.8684C10.3456 11.9211 11.1579 11.0987 11.7167 10.4013C12.2756 9.70395 12.555 8.9079 12.555 8.01316C12.555 6.93421 12.1976 6.03947 11.4828 5.32895C10.768 4.61842 9.7737 4.26316 8.5 4.26316C7.17431 4.26316 6.16705 4.67105 5.47821 5.48684C4.78937 6.30263 4.30199 7.13158 4.01606 7.97368L0 6.23684C0.545872 4.55263 1.54664 3.09211 3.00229 1.85526C4.45795 0.618421 6.29052 0 8.5 0C11.2294 0 13.3284 0.769737 14.797 2.30921C16.2657 3.84868 17 5.69737 17 7.85526C17 9.17105 16.7206 10.2961 16.1617 11.2303C15.6028 12.1645 14.7255 13.2237 13.5298 14.4079C12.2561 15.6447 11.4828 16.5855 11.2099 17.2303C10.9369 17.875 10.8005 18.9737 10.8005 20.5263H6.31651ZM8.5 30C7.6422 30 6.90788 29.6908 6.29702 29.0724C5.68616 28.4539 5.38073 27.7105 5.38073 26.8421C5.38073 25.9737 5.68616 25.2303 6.29702 24.6118C6.90788 23.9934 7.6422 23.6842 8.5 23.6842C9.3578 23.6842 10.0921 23.9934 10.703 24.6118C11.3138 25.2303 11.6193 25.9737 11.6193 26.8421C11.6193 27.7105 11.3138 28.4539 10.703 29.0724C10.0921 29.6908 9.3578 30 8.5 30Z" fill="#4E4E4E"/>
</svg>
